Coordinates
version=1
nRows=16
nColumns=36
inDegrees=yes

Units are S.I. units (second, meters, Newtons, ...)
If the header above contains a line with 'inDegrees', this indicates whether rotational values are in degrees (yes) or radians (no).

endheader
time	pelvis_tilt	pelvis_list	pelvis_rotation	pelvis_tx	pelvis_ty	pelvis_tz	hip_flexion_r	hip_adduction_r	hip_rotation_r	knee_angle_r	knee_angle_r_beta	ankle_angle_r	subtalar_angle_r	mtp_angle_r	hip_flexion_l	hip_adduction_l	hip_rotation_l	knee_angle_l	knee_angle_l_beta	ankle_angle_l	subtalar_angle_l	mtp_angle_l	lumbar_extension	lumbar_bending	lumbar_rotation	arm_flex_r	arm_add_r	arm_rot_r	elbow_flex_r	pro_sup_r	arm_flex_l	arm_add_l	arm_rot_l	elbow_flex_l	pro_sup_l
     15.53333330	     -9.29944437	      2.01066988	      2.41486435	      0.32237027	      0.92050666	     -0.00562809	      8.90763026	     -9.88392227	    -18.28003201	      5.90728915	      0.10310165	      4.56195049	      4.06768008	     -7.49999987	      9.02370612	     -7.39587085	     -7.67901304	      6.12142747	      0.10683906	      0.94912694	     10.40971985	     -7.49999987	      0.64700204	      0.75703521	     -0.97457917	     75.83925694	      9.19259025	     65.97150405	    122.73077491	    103.96407381	     72.83923793	     19.83447859	     85.26965144	    147.89089924	     92.84260663
     15.55000000	     -9.10684945	      2.00863478	      2.72533997	      0.31754477	      0.91853242	     -0.00813896	      8.82229196	    -10.02705536	    -17.89481880	      6.05890749	      0.10574788	      4.88368432	      3.41378761	     -7.49999987	      9.06403882	     -7.28499868	     -7.02887472	      6.29865745	      0.10993231	      1.24807660	     10.14130182	     -7.49999987	      0.36694562	      0.85019134	     -1.66326748	     76.00996464	     10.09058748	     65.70421422	    122.35234640	    103.96211798	     73.24216013	     19.23062719	     83.93868013	    147.89367654	     92.92625135
     15.56666670	     -8.76130792	      2.00441477	      3.02991118	      0.32244222	      0.91874355	     -0.00637438	      8.34360850	    -10.08475926	    -17.67010046	      6.11900841	      0.10679684	      5.13756927	      2.82254342	     -7.49999987	      8.78075249	     -7.28168935	     -6.53671007	      6.37147636	      0.11120324	      1.40280116	      9.90399973	     -7.49999987	      0.12738123	      0.73219228	     -2.10047035	     75.95874972	     10.81167191	     65.37347739	    122.25779629	    104.02873336	     73.18657572	     18.87646185	     82.95652429	    148.02745895	     93.08454658
     15.58333330	     -8.60616431	      2.00497991	      3.32268138	      0.32214032	      0.92132013	     -0.00607811	      8.05454965	    -10.12159908	    -17.57561948	      6.11714863	      0.10676438	      4.93831521	      2.31698516	     -7.49999987	      8.68358340	     -7.25227572	     -6.35789333	      6.40419568	      0.11177430	      0.94910487	      9.47926581	     -7.49999987	      0.01716378	      0.63693399	     -2.45423592	     75.95532988	     11.45286558	     65.44313725	    122.22091852	    105.23330160	     73.25660049	     18.33873354	     82.50715094	    148.11143836	     94.24083577
     15.60000000	     -8.40540882	      2.01777533	      3.41259374	      0.32148838	      0.91882564	     -0.00633171	      7.80652894	    -10.11201106	    -17.43120900	      6.14419666	      0.10723646	      5.11050185	      1.93531052	     -7.49999987	      8.54759397	     -7.24834479	     -6.08609888	      6.56561446	      0.11459159	      1.02447632	      9.31106104	     -7.49999987	      0.00004873	      0.38879448	     -2.39409642	     75.88456066	     11.46007183	     65.12689825	    122.37795535	    105.47881971	     73.24423256	     18.23174048	     81.91238534	    148.27616441	     95.49710002
     15.61666670	     -8.37916653	      1.95731786	      3.56772065	      0.32167836	      0.91921071	     -0.00624383	      7.62625070	    -10.02501020	    -17.48532129	      6.07882712	      0.10609555	      5.04344832	      1.76601521	     -7.49999987	      8.57686295	     -7.34671754	     -5.82420625	      6.60396895	      0.11526100	      0.94672177	      9.23162646	     -7.49999987	      0.17095984	      0.20905290	     -2.10807122	     75.81672650	     11.34198371	     64.96794564	    122.61290338	    105.66545561	     73.29485848	     18.56173075	     81.26776341	    148.47997527	     96.10292450
     15.63333330	     -8.24786433	      1.94963149	      3.70268462	      0.32131049	      0.91884277	     -0.00671841	      7.42012710	    -10.02282186	    -17.39182141	      6.13194424	      0.10702262	      5.13962613	      1.44428381	     -7.49999987	      8.55608348	     -7.34569048	     -5.76688642	      6.77698203	      0.11828065	      0.73379488	      8.83104721	     -7.49999987	      0.36964269	     -0.17191243	     -1.58034832	     75.70694250	     10.83196584	     64.59670568	    122.98179398	    106.09668912	     73.26783230	     19.04625109	     80.73747339	    148.76352451	     96.92905205
     15.65000000	     -8.36997257	      2.07856736	      3.66264532	      0.31665668	      0.91900705	     -0.00864657	      7.61217043	    -10.18742075	    -17.36420536	      6.02873276	      0.10522124	      5.20100973	      1.49435012	     -7.49999987	      8.88928607	     -7.15047768	     -5.86674834	      6.95906379	      0.12145858	      0.54624123	      8.73680504	     -7.49999987	      0.25243169	     -0.45598133	     -1.34617674	     76.04321315	     10.74704376	     64.52221109	    123.16857710	    106.08768855	     73.59312128	     18.64959799	     80.68417624	    148.89999282	     96.95703527
     15.66666670	     -8.48114022	      2.00251542	      3.68841443	      0.32148147	      0.91671902	     -0.00649227	      7.72964423	    -10.11257888	    -17.22027955	      6.07123920	      0.10596311	      5.25505759	      1.58375278	     -7.49999987	      9.04648847	     -7.22683108	     -5.83375807	      6.92583079	      0.12087855	      0.59053033	      8.57134337	     -7.49999987	      0.27699769	     -0.60482794	     -1.30392628	     76.33496770	     10.60177462	     64.59179385	    123.53142011	    106.09605848	     73.82526978	     18.34225472	     80.60509948	    148.98116651	     96.99921493
     15.68333330	     -8.75203183	      1.96828483	      3.80206335	      0.32175842	      0.91683160	     -0.00651655	      8.05943716	    -10.13224116	    -17.31106747	      6.24910608	      0.10906748	      5.41925047	      1.76976919	     -7.49999987	      9.51462834	     -7.21517816	     -5.60587000	      7.14600893	      0.12472138	      0.52062037	      7.94791046	     -7.49999987	      0.37394524	     -0.78416473	     -0.93646823	     76.79959707	     10.22063322	     64.81625549	    124.24243850	    106.97776150	     74.25391357	     18.49593033	     80.04052223	    149.00626991	     97.98590870
     15.70000000	     -8.90969423	      1.94034045	      3.73015125	      0.31676485	      0.91650060	     -0.00898448	      8.62024355	    -10.23695934	    -17.09435429	      6.66090331	      0.11625469	      5.63948619	      1.52574728	     -7.49999987	      9.89913930	     -7.22570459	     -5.66779021	      7.45203809	      0.13006260	      0.76368909	      7.65011705	     -7.49999987	      0.11216564	     -0.84369546	     -0.59391183	     77.47024597	      9.80590272	     64.60403651	    124.67582663	    106.91876170	     74.84178212	     18.57261758	     80.10215038	    149.07415941	     98.19004846
     15.71666670	     -9.11853833	      1.93189574	      3.80655556	      0.31745578	      0.91418847	     -0.00924403	      9.09187733	    -10.35679614	    -16.97609963	      7.01043608	      0.12235519	      5.74417293	      1.36336032	     -7.49999987	     10.23912187	     -7.20635187	     -5.58385968	      7.66277124	      0.13374059	      0.93533019	      7.38999715	     -7.49999987	     -0.10189863	     -0.87550844	     -0.45530431	     78.01844764	      9.17644884	     64.19169624	    125.07442224	    107.18227562	     75.48965335	     18.38264742	     79.66358345	    149.12195017	     99.46360728
     15.73333330	     -9.36822144	      1.98269841	      3.69923333	      0.31786619	      0.91208684	     -0.00980380	      9.71996729	    -10.56657934	    -16.71732312	      7.59780274	      0.13260667	      5.85228007	      1.09677334	     -7.49999987	     10.74954318	     -7.12911597	     -5.69333465	      8.10097545	      0.14138869	      1.09075578	      7.14130366	     -7.49999987	     -0.41312440	     -0.94756332	     -0.54836332	     78.89372830	      9.41614352	     64.27169067	    125.24157361	    107.41784465	     76.33485433	     18.17438321	     79.36355289	    149.10662989	     99.78692701
     15.75000000	     -9.72025476	      2.07610515	      3.50516358	      0.31461189	      0.90494309	     -0.01263217	     10.74855135	    -10.98050635	    -16.59750374	      8.66060639	      0.15115610	      6.43897307	      0.83410554	     -7.49999987	     11.42385832	     -6.99247618	     -5.98626778	      8.76320580	      0.15294679	      1.79322760	      6.83255296	     -7.49999987	     -0.72742011	     -0.87088405	     -0.73185024	     80.08109596	      9.65284174	     64.24642347	    125.21125666	    106.18858392	     77.48753157	     17.91235368	     78.75723066	    149.05610276	     98.88538787
     15.76666670	    -10.13094724	      2.14553668	      3.24885810	      0.31064428	      0.90450272	     -0.00938969	     12.29864354	    -11.35362500	    -16.16300910	     10.30006230	      0.17977000	      7.37416407	      0.31695553	     -7.49999987	     12.51630106	     -7.02358133	     -6.18216026	     10.05846301	      0.17555330	      2.56297818	      6.40806140	     -7.49999987	     -1.17617312	     -0.92595869	     -0.81834091	     81.01634391	      9.75399503	     64.06407424	    125.54787034	    106.31515827	     78.69163819	     17.54521363	     78.87618690	    148.98787860	     99.15676934
     15.78333330	    -10.48901880	      2.22553476	      2.91496445	      0.31077566	      0.90294433	     -0.00892127	     14.26305044	    -11.83208232	    -15.58908222	     13.00898804	      0.22704967	      8.74831981	     -0.29138708	     -7.49999987	     14.05357007	     -7.21524994	     -6.61949808	     12.26807937	      0.21411838	      3.80580081	      6.23548059	     -7.49999987	     -1.67072714	     -0.97854689	     -0.77328177	     81.95848328	     10.04861701	     64.23398335	    125.78970882	    107.60539995	     79.63680965	     17.32347634	     78.76663648	    148.93774602	     99.88120902
